<svg width="14" height="17" viewBox="0 0 14 17" fill="none" xmlns="http://www.w3.org/2000/svg">
<path d="M4.50008 2.16666H2.83341C1.91294 2.16666 1.16675 2.91285 1.16675 3.83332V13.8333C1.16675 14.7538 1.91294 15.5 2.83341 15.5H11.1667C12.0872 15.5 12.8334 14.7538 12.8334 13.8333V3.83332C12.8334 2.91285 12.0872 2.16666 11.1667 2.16666H9.50008M4.50008 2.16666H9.50008M4.50008 2.16666C4.50008 3.08713 5.24627 2.92423 6.16675 2.92423H7.83342C8.75392 2.92423 9.50008 3.08713 9.50008 2.16666M4.50008 2.16666C4.50008 1.24618 5.24627 1.40908 6.16675 1.40908H7.83342C8.75392 1.40908 9.50008 1.24618 9.50008 2.16666M7.00008 7.99999H9.50008M7.00008 11.3333H9.50008M4.50008 7.99999H4.50842M4.50008 11.3333H4.50842" stroke="#444444" stroke-width="1.5" stroke-linecap="round" stroke-linejoin="round"/>
</svg>
