<svg width="16" height="16" viewBox="0 0 16 16" fill="none" xmlns="http://www.w3.org/2000/svg">
<path d="M12.4167 9.12493C12.1981 9.12401 11.9886 9.03722 11.8334 8.88326C11.6782 8.72713 11.591 8.51592 11.591 8.29576C11.591 8.07561 11.6782 7.8644 11.8334 7.70826L13.6 5.9416C13.755 5.78681 13.8779 5.60299 13.9618 5.40066C14.0457 5.19833 14.0888 4.98146 14.0888 4.76243C14.0888 4.5434 14.0457 4.32653 13.9618 4.1242C13.8779 3.92187 13.755 3.73805 13.6 3.58326L12.4167 2.39993C12.098 2.0987 11.6761 1.93087 11.2375 1.93087C10.799 1.93087 10.3771 2.0987 10.0584 2.39993L8.2917 4.1666C8.13196 4.29441 7.93078 4.35899 7.7265 4.34804C7.52222 4.3371 7.3291 4.2514 7.18392 4.10725C7.03875 3.96311 6.95167 3.77061 6.93928 3.5664C6.92688 3.3622 6.99003 3.16058 7.1167 2.99993L8.88336 1.23326C9.51887 0.627037 10.3634 0.288818 11.2417 0.288818C12.12 0.288818 12.9645 0.627037 13.6 1.23326L14.775 2.40826C15.085 2.71784 15.3308 3.08547 15.4986 3.49013C15.6663 3.89479 15.7527 4.32855 15.7527 4.7666C15.7527 5.20465 15.6663 5.6384 15.4986 6.04306C15.3308 6.44772 15.085 6.81535 14.775 7.12493L13 8.88326C12.8448 9.03722 12.6353 9.12401 12.4167 9.12493Z" fill="#464646"/>
<path d="M4.75827 15.75C4.3204 15.7504 3.88676 15.6644 3.4821 15.4971C3.07745 15.3299 2.70973 15.0845 2.39994 14.775L1.22494 13.6C0.915015 13.2905 0.669152 12.9228 0.501404 12.5182C0.333657 12.1135 0.247314 11.6797 0.247314 11.2417C0.247314 10.8036 0.333657 10.3699 0.501404 9.96523C0.669152 9.56057 0.915015 9.19294 1.22494 8.88336L2.99994 7.1167C3.16058 6.99003 3.36221 6.92688 3.56641 6.93928C3.77061 6.95167 3.96312 7.03875 4.10726 7.18392C4.2514 7.3291 4.33711 7.52222 4.34805 7.7265C4.35899 7.93078 4.29441 8.13196 4.1666 8.2917L2.39994 10.0584C2.24498 10.2132 2.12204 10.397 2.03817 10.5993C1.9543 10.8016 1.91113 11.0185 1.91113 11.2375C1.91113 11.4566 1.9543 11.6734 2.03817 11.8758C2.12204 12.0781 2.24498 12.2619 2.39994 12.4167L3.58327 13.6C3.90198 13.9013 4.3239 14.0691 4.76244 14.0691C5.20098 14.0691 5.62289 13.9013 5.9416 13.6L7.70827 11.8334C7.78099 11.7411 7.87238 11.6653 7.97645 11.6109C8.08052 11.5565 8.19492 11.5247 8.31215 11.5175C8.42938 11.5104 8.54679 11.5282 8.65668 11.5696C8.76657 11.611 8.86647 11.6752 8.94981 11.758C9.03315 11.8407 9.09806 11.9402 9.14028 12.0498C9.1825 12.1594 9.20108 12.2766 9.19479 12.3939C9.18851 12.5112 9.15751 12.6258 9.10382 12.7303C9.05013 12.8347 8.97498 12.9267 8.88327 13L7.1166 14.7667C6.8075 15.0776 6.44008 15.3246 6.0354 15.4933C5.63072 15.662 5.19672 15.7493 4.75827 15.75Z" fill="#464646"/>
<path d="M5.34988 11.4833C5.24021 11.484 5.13149 11.4629 5.02996 11.4215C4.92843 11.38 4.83608 11.3189 4.75822 11.2417C4.68011 11.1642 4.61811 11.072 4.57581 10.9705C4.5335 10.8689 4.51172 10.76 4.51172 10.65C4.51172 10.54 4.5335 10.4311 4.57581 10.3295C4.61811 10.228 4.68011 10.1358 4.75822 10.0583L10.0665 4.75832C10.2227 4.60311 10.4339 4.51599 10.654 4.51599C10.8742 4.51599 11.0854 4.60311 11.2415 4.75832C11.3197 4.83579 11.3817 4.92796 11.424 5.02951C11.4663 5.13105 11.488 5.23998 11.488 5.34999C11.488 5.45999 11.4663 5.56892 11.424 5.67047C11.3817 5.77202 11.3197 5.86418 11.2415 5.94165L5.93322 11.2417C5.778 11.3956 5.5685 11.4824 5.34988 11.4833Z" fill="#464646"/>
</svg>
