<svg width="15" height="19" viewBox="0 0 15 19" fill="none" xmlns="http://www.w3.org/2000/svg">
<path fill-rule="evenodd" clip-rule="evenodd" d="M14.4619 13.5409C13.6606 12.4953 12.6913 11.8163 11.3025 11.431L10.0012 15.987C10.0012 16.4066 9.65764 16.7502 9.23802 16.7502C8.81852 16.7502 8.47492 16.4066 8.47492 15.987V12.3619C8.47492 11.8354 8.04744 11.4079 7.52089 11.4079C6.99438 11.4079 6.56694 11.8354 6.56694 12.3619V15.987C6.56694 16.4066 6.22334 16.7502 5.8038 16.7502C5.38414 16.7502 5.04054 16.4066 5.04054 15.987L3.73925 11.431C2.3504 11.82 1.38116 12.4953 0.57997 13.5409C0.263206 13.953 0.09109 14.7811 0.079834 15.2239C0.083614 15.3383 0.079834 15.4719 0.079834 15.6053V16.3685V17.1318C0.079834 17.9751 0.762922 18.6581 1.60624 18.6581H13.4355C14.2787 18.6581 14.9619 17.9751 14.9619 17.1318V16.3685V15.6053C14.9619 15.4719 14.9582 15.3383 14.9619 15.2239C14.9504 14.7811 14.7785 13.953 14.4619 13.5409ZM3.51417 4.379C3.51417 6.60748 4.90345 9.88155 7.52089 9.88155C10.0928 9.88155 11.5275 6.60748 11.5275 4.379C11.5275 2.15061 9.73404 0.341797 7.52089 0.341797C5.30774 0.341797 3.51417 2.15061 3.51417 4.379Z" fill="#444444"/>
</svg>
