<svg width="18" height="18" viewBox="0 0 18 18" fill="none" xmlns="http://www.w3.org/2000/svg">
<path d="M15.7161 13.6635H2.28403C1.71268 13.6623 1.16509 13.4347 0.761125 13.0307C0.357165 12.6266 0.129749 12.079 0.128662 11.5076V2.75706C0.129885 2.18579 0.357361 1.63827 0.761306 1.23433C1.16525 0.830383 1.71277 0.602907 2.28403 0.601685H15.7161C16.2874 0.602907 16.8349 0.830383 17.2389 1.23433C17.6428 1.63827 17.8703 2.18579 17.8715 2.75706V11.5076C17.8704 12.079 17.643 12.6266 17.2391 13.0307C16.8351 13.4347 16.2875 13.6623 15.7161 13.6635ZM2.28403 1.8874C2.05347 1.88767 1.83243 1.97938 1.66939 2.14242C1.50636 2.30545 1.41465 2.52649 1.41438 2.75706V11.5076C1.41451 11.7383 1.50616 11.9595 1.66921 12.1226C1.83226 12.2857 2.05338 12.3775 2.28403 12.3778H15.7161C15.9468 12.3774 16.1678 12.2856 16.3308 12.1224C16.4938 11.9593 16.5855 11.7382 16.5858 11.5076V2.75706C16.5855 2.52649 16.4938 2.30545 16.3308 2.14242C16.1678 1.97938 15.9467 1.88767 15.7161 1.8874H2.28403Z" fill="white"/>
<path d="M10.5943 17.2075C10.4238 17.2075 10.2603 17.1397 10.1397 17.0192C10.0191 16.8986 9.95142 16.7351 9.95142 16.5646V13.0207C9.95142 12.9362 9.96804 12.8526 10.0004 12.7747C10.0327 12.6967 10.08 12.6258 10.1397 12.5661C10.1994 12.5064 10.2703 12.459 10.3483 12.4267C10.4263 12.3944 10.5099 12.3778 10.5943 12.3778C10.6787 12.3778 10.7623 12.3944 10.8403 12.4267C10.9183 12.459 10.9891 12.5064 11.0488 12.5661C11.1085 12.6258 11.1559 12.6967 11.1882 12.7747C11.2205 12.8526 11.2371 12.9362 11.2371 13.0207V16.5646C11.2372 16.649 11.2206 16.7327 11.1883 16.8107C11.1561 16.8887 11.1087 16.9596 11.049 17.0193C10.9893 17.079 10.9184 17.1264 10.8404 17.1587C10.7623 17.1909 10.6787 17.2075 10.5943 17.2075Z" fill="white"/>
<path d="M7.92777 17.2075C7.75727 17.2075 7.59376 17.1397 7.4732 17.0192C7.35264 16.8986 7.28491 16.7351 7.28491 16.5646V13.0207C7.28491 12.8502 7.35264 12.6867 7.4732 12.5661C7.59376 12.4455 7.75727 12.3778 7.92777 12.3778C8.09827 12.3778 8.26178 12.4455 8.38234 12.5661C8.5029 12.6867 8.57063 12.8502 8.57063 13.0207V16.5646C8.57069 16.649 8.55411 16.7327 8.52183 16.8107C8.48955 16.8887 8.4422 16.9596 8.38249 17.0193C8.32278 17.079 8.25189 17.1264 8.17386 17.1587C8.09583 17.1909 8.01221 17.2075 7.92777 17.2075Z" fill="white"/>
<path d="M13.1332 17.3983H5.38651C5.21601 17.3983 5.0525 17.3305 4.93194 17.21C4.81138 17.0894 4.74365 16.9259 4.74365 16.7554C4.74365 16.5849 4.81138 16.4214 4.93194 16.3008C5.0525 16.1803 5.21601 16.1125 5.38651 16.1125H13.1332C13.3037 16.1125 13.4672 16.1803 13.5878 16.3008C13.7083 16.4214 13.7761 16.5849 13.7761 16.7554C13.7761 16.9259 13.7083 17.0894 13.5878 17.21C13.4672 17.3305 13.3037 17.3983 13.1332 17.3983Z" fill="white"/>
</svg>
