<svg width="14" height="15" viewBox="0 0 14 15" fill="none" xmlns="http://www.w3.org/2000/svg">
<path d="M6.65926 8.33333C6.43825 8.33333 6.22629 8.24553 6.07001 8.08925C5.91372 7.93297 5.82593 7.72101 5.82593 7.5V0.833333C5.82593 0.612319 5.91372 0.400358 6.07001 0.244078C6.22629 0.0877975 6.43825 0 6.65926 0C6.88027 0 7.09224 0.0877975 7.24852 0.244078C7.4048 0.400358 7.49259 0.612319 7.49259 0.833333V7.5C7.49259 7.72101 7.4048 7.93297 7.24852 8.08925C7.09224 8.24553 6.88027 8.33333 6.65926 8.33333Z" fill="#444444"/>
<path d="M6.65925 14.1666C5.24124 14.165 3.86067 13.7113 2.71813 12.8715C1.57559 12.0316 0.73061 10.8493 0.305959 9.49636C-0.118691 8.14343 -0.100888 6.69034 0.356782 5.34821C0.814451 4.00609 1.68814 2.84485 2.85092 2.03324C2.94029 1.96395 3.04283 1.91359 3.15229 1.8852C3.26175 1.85682 3.37584 1.85101 3.48762 1.86812C3.5994 1.88524 3.70652 1.92493 3.80247 1.98477C3.89842 2.04461 3.98118 2.12336 4.04573 2.21621C4.11027 2.30906 4.15524 2.41408 4.1779 2.52487C4.20056 2.63566 4.20044 2.7499 4.17753 2.86063C4.15463 2.97137 4.10943 3.07629 4.04468 3.169C3.97993 3.26171 3.897 3.34027 3.80092 3.3999C2.92763 4.00835 2.2713 4.8796 1.92741 5.88687C1.58353 6.89413 1.57004 7.98485 1.88892 9.00031C2.20779 10.0158 2.84238 10.903 3.70035 11.5328C4.55832 12.1627 5.5949 12.5023 6.65925 12.5023C7.7236 12.5023 8.76017 12.1627 9.61814 11.5328C10.4761 10.903 11.1107 10.0158 11.4296 9.00031C11.7485 7.98485 11.735 6.89413 11.3911 5.88687C11.0472 4.8796 10.3909 4.00835 9.51758 3.3999C9.34883 3.26909 9.23673 3.07849 9.20441 2.86743C9.17209 2.65637 9.22201 2.44096 9.34388 2.26564C9.46575 2.09032 9.65027 1.96847 9.85936 1.92522C10.0684 1.88198 10.2862 1.92064 10.4676 2.03324C11.6304 2.84485 12.504 4.00609 12.9617 5.34821C13.4194 6.69034 13.4372 8.14343 13.0125 9.49636C12.5879 10.8493 11.7429 12.0316 10.6004 12.8715C9.45783 13.7113 8.07726 14.165 6.65925 14.1666Z" fill="#444444"/>
</svg>
