<svg width="14" height="14" viewBox="0 0 14 14" fill="none" xmlns="http://www.w3.org/2000/svg">
<path d="M13.5973 1.463C13.4779 1.40787 13.3455 1.38911 13.216 1.40897C13.0865 1.42882 12.9653 1.48646 12.8669 1.575L11.9385 2.422C11.3097 1.66266 10.5273 1.05272 9.64556 0.634487C8.76385 0.216255 7.80397 -0.000246808 6.83251 3.00657e-06C5.58068 -0.00118657 4.35264 0.350646 3.28269 1.01702C2.21273 1.6834 1.34208 2.63866 0.765936 3.77832C0.189795 4.91799 -0.0696439 6.19817 0.0159944 7.47887C0.101633 8.75957 0.529049 9.99146 1.2515 11.0398C1.97395 12.0882 2.96361 12.9126 4.11225 13.423C5.26089 13.9334 6.52427 14.11 7.76423 13.9336C9.00418 13.7572 10.173 13.2345 11.1427 12.4228C12.1125 11.611 12.8459 10.5414 13.2628 9.331C13.3225 9.15556 13.3118 8.96297 13.2331 8.79559C13.1544 8.62822 13.014 8.49977 12.843 8.4385C12.6719 8.37724 12.4841 8.38817 12.3208 8.46891C12.1576 8.54964 12.0324 8.69356 11.9726 8.869C11.6384 9.83701 11.0511 10.6921 10.2748 11.3409C9.49859 11.9896 8.56334 12.407 7.57135 12.5474C6.57936 12.6878 5.56883 12.5458 4.65025 12.1369C3.73168 11.728 2.94043 11.0679 2.36304 10.2289C1.78564 9.38991 1.44433 8.40426 1.37643 7.37973C1.30852 6.35521 1.51664 5.33126 1.97802 4.41986C2.4394 3.50846 3.13628 2.7447 3.99245 2.21209C4.84862 1.67949 5.83112 1.39855 6.83251 1.4C7.61207 1.39978 8.38232 1.57375 9.08964 1.90982C9.79697 2.2459 10.4244 2.73599 10.9282 3.346L9.79507 4.375C9.69066 4.46972 9.61702 4.59495 9.58407 4.73386C9.55113 4.87276 9.56044 5.01869 9.61077 5.152C9.66027 5.28356 9.74736 5.39671 9.86064 5.47665C9.97391 5.55659 10.1081 5.59959 10.2456 5.6H13.3174C13.4984 5.6 13.6721 5.52625 13.8001 5.39498C13.9281 5.2637 14 5.08565 14 4.9V2.1C13.9997 1.96535 13.9616 1.83364 13.8902 1.72065C13.8187 1.60767 13.717 1.51821 13.5973 1.463Z" fill="white"/>
</svg>
