<svg width="18" height="18" viewBox="0 0 18 18" fill="none" xmlns="http://www.w3.org/2000/svg">
<path d="M8.3375 2.35H8.3025H2.8125C2.68984 2.35 2.5722 2.39873 2.48546 2.48546C2.39873 2.5722 2.35 2.68984 2.35 2.8125V15.1875C2.35 15.3102 2.39873 15.4278 2.48546 15.5145C2.5722 15.6013 2.68984 15.65 2.8125 15.65H11.8125C11.9352 15.65 12.0528 15.6013 12.1395 15.5145C12.2263 15.4278 12.275 15.3102 12.275 15.1875V12.0488V12.0073L12.3043 11.978L13.4293 10.853L13.6 10.6823V10.9238V15.1875C13.6 15.6616 13.4117 16.1162 13.0765 16.4515C12.7412 16.7867 12.2866 16.975 11.8125 16.975H2.8125C2.33843 16.975 1.88377 16.7867 1.54855 16.4515C1.21333 16.1162 1.025 15.6616 1.025 15.1875V2.8125C1.025 2.33843 1.21333 1.88377 1.54855 1.54855C1.88377 1.21333 2.33843 1.025 2.8125 1.025L8.30242 1.025L8.3375 2.35ZM8.3375 2.35V4.5C8.3375 4.97408 8.52583 5.42873 8.86105 5.76395C9.19627 6.09918 9.65093 6.2875 10.125 6.2875H10.1664L10.1957 6.25821L11.3207 5.13321L11.4914 4.9625H11.4858L11.9845 4.46384L12.277 4.17134L12.3476 4.10071L12.277 4.03L9.96517 1.7125L9.96505 1.71238C9.74664 1.49421 9.4874 1.32122 9.20212 1.20328C8.91686 1.08535 8.61117 1.02477 8.3025 1.025L8.3375 2.35ZM9.6625 4.5V3.28455L11.3405 4.9625H11.25H10.125C10.0023 4.9625 9.8847 4.91377 9.79796 4.82704C9.71123 4.7403 9.6625 4.62266 9.6625 4.5Z" fill="#444444" stroke="#444444" stroke-width="0.2"/>
<path d="M17.3054 3.08317C17.1544 2.90241 16.9656 2.757 16.7523 2.65723C16.5389 2.55745 16.3063 2.50574 16.0707 2.50574C15.8352 2.50574 15.6026 2.55745 15.3892 2.65723C15.1759 2.757 14.987 2.90241 14.836 3.08317L13.711 4.20817L8.92979 8.96692C8.72681 9.17444 8.55103 9.40693 8.40667 9.65879L7.00604 12.5107H4.93042C4.78124 12.5107 4.63816 12.5699 4.53267 12.6754C4.42718 12.7809 4.36792 12.924 4.36792 13.0732C4.36792 13.2224 4.42718 13.3654 4.53267 13.4709C4.63816 13.5764 4.78124 13.6357 4.93042 13.6357H7.18042C7.32058 13.6338 7.39769 13.5958 7.5 13.5C7.5 13.5 7.5 13.5 7.65855 13.4838L10.7579 11.9482C10.9918 11.8066 11.2072 11.6366 11.3992 11.4419L11.7142 11.1325L16.1804 6.67192L17.3054 5.54692C17.4773 5.39008 17.6158 5.20011 17.7125 4.98842C17.8091 4.77673 17.862 4.54768 17.8679 4.31504C17.8607 4.08263 17.8073 3.85398 17.7107 3.64247C17.6141 3.43095 17.4763 3.24081 17.3054 3.08317ZM10.3698 10.8232L10.2179 10.93L8.64292 11.7063L9.39105 10.1707C9.46788 10.0498 9.55643 9.93672 9.65542 9.83317L9.99855 10.1763L10.516 10.6994L10.3698 10.8232ZM11.3204 9.90629L10.8817 9.47317L10.4429 9.02879L14.0992 5.37254L14.9767 6.25004L11.3204 9.90629ZM16.4898 4.73692L15.7698 5.47942L14.8923 4.59629L15.6179 3.88192C15.729 3.74758 15.8848 3.65772 16.0567 3.62879C16.2282 3.65867 16.3837 3.74835 16.4954 3.88192C16.6279 3.99459 16.7173 4.1496 16.7485 4.32067C16.7145 4.49202 16.6233 4.64672 16.4898 4.75942V4.73692Z" fill="#444444"/>
</svg>
