<svg width="24" height="24" viewBox="0 0 24 24" fill="none" xmlns="http://www.w3.org/2000/svg">
<path d="M12.765 7.5C12.765 7.9125 12.4275 8.25 12.015 8.25C12.015 8.25 12.0075 8.25 12 8.25H1.5C1.0875 8.25 0.75 7.9125 0.75 7.5V3.75C0.75 3.3375 1.0875 3 1.5 3H9.75C10.0125 3 10.26 3.135 10.395 3.3675L12.5775 7.005C12.69 7.1325 12.765 7.3125 12.765 7.5Z" fill="#FE9803"/>
<path d="M23.25 7.5V20.25C23.25 20.6625 22.9125 21 22.5 21H1.5C1.0875 21 0.75 20.6625 0.75 20.25V6.75H22.5C22.9125 6.75 23.25 7.0875 23.25 7.5Z" fill="#FFC10A"/>
</svg>
