<svg width="24" height="24" viewBox="0 0 24 24" fill="none" xmlns="http://www.w3.org/2000/svg">
<path d="M20.25 6.75V10.5C20.25 10.9125 19.9125 11.25 19.5 11.25H5.055L2.22 20.4675C2.1225 20.79 1.8225 21 1.5 21C1.4625 21 1.425 21 1.3875 20.9925C1.02 20.94 0.75 20.625 0.75 20.25V3.75C0.75 3.3375 1.0875 3 1.5 3H6.75C6.9825 3 7.2075 3.1125 7.35 3.3L9.375 6H19.5C19.9125 6 20.25 6.3375 20.25 6.75Z" fill="#FE9803"/>
<path d="M23.2198 10.7175L20.2198 20.4675C20.1223 20.7825 19.8298 21 19.4998 21H1.49982C1.25982 21 1.03482 20.8875 0.899816 20.6925C0.757316 20.505 0.712316 20.2575 0.779816 20.0325L3.77982 10.2825C3.87732 9.9675 4.16982 9.75 4.49982 9.75H22.4998C22.7398 9.75 22.9648 9.8625 23.0998 10.0575C23.2423 10.245 23.2873 10.4925 23.2198 10.7175Z" fill="#FFC10A"/>
</svg>
