<svg width="25" height="25" viewBox="0 0 25 25" fill="none" xmlns="http://www.w3.org/2000/svg">
<path d="M22.5445 19.9102L20.3125 16.1898V10.9375C20.3125 6.89297 17.2234 3.55781 13.2813 3.16484V2.34375C13.2813 1.9125 12.9313 1.5625 12.5 1.5625C12.0688 1.5625 11.7188 1.9125 11.7188 2.34375V3.90625C11.7188 4.3375 12.0688 4.6875 12.5 4.6875C15.9461 4.6875 18.75 7.49141 18.75 10.9375V16.4062C18.75 16.5484 18.7883 16.6867 18.8617 16.8086L20.4945 19.5312H4.5047L6.13829 16.8086C6.21173 16.6867 6.25001 16.5484 6.25001 16.4062V10.9375C6.25001 8.53203 7.65626 6.3125 9.83204 5.28281C10.2219 5.09844 10.3883 4.63281 10.2039 4.24219C10.0195 3.85234 9.55392 3.68594 9.16329 3.87031C6.44454 5.15703 4.68751 7.93047 4.68751 10.9375V16.1898L2.45548 19.9109C2.31017 20.1523 2.30704 20.4523 2.44532 20.6984C2.5836 20.943 2.84376 21.0938 3.12501 21.0938H9.48595C9.83517 22.4383 11.0484 23.4375 12.5 23.4375C13.9524 23.4375 15.1649 22.4383 15.5141 21.0938H21.875C22.1563 21.0938 22.4156 20.943 22.5547 20.6977C22.6938 20.4523 22.6899 20.1516 22.5445 19.9102ZM12.5 21.875C11.9242 21.875 11.4258 21.5586 11.1547 21.0938H13.8445C13.5742 21.5586 13.0758 21.875 12.5 21.875Z" fill="black"/>
</svg>
