<svg width="25" height="25" viewBox="0 0 25 25" fill="none" xmlns="http://www.w3.org/2000/svg">
<path d="M24.0385 12.5C24.0385 6.13779 18.8627 0.961538 12.5 0.961538C6.13733 0.961538 0.961548 6.13779 0.961548 12.5C0.961548 15.7535 2.3204 18.691 4.4939 20.7906C4.54478 20.8569 4.60505 20.9106 4.6756 20.9558C6.73448 22.8624 9.47912 24.0385 12.5 24.0385C15.5209 24.0385 18.2655 22.8624 20.3244 20.9558C20.395 20.9106 20.4552 20.8569 20.5061 20.7906C22.6796 18.691 24.0385 15.7535 24.0385 12.5ZM12.5 2.40385C18.0674 2.40385 22.5962 6.93312 22.5962 12.5C22.5962 14.8605 21.7757 17.0296 20.4132 18.7508C19.7877 16.7337 18.002 15.1546 15.5785 14.4279C16.8992 13.4721 17.7631 11.9235 17.7631 10.1736C17.7631 7.27539 15.4025 4.91756 12.5 4.91756C9.59755 4.91756 7.2369 7.27539 7.2369 10.1736C7.2369 11.9235 8.10078 13.4721 9.42155 14.4279C6.99798 15.1546 5.21229 16.7337 4.5868 18.7508C3.22431 17.0296 2.40386 14.8605 2.40386 12.5C2.40386 6.93312 6.93266 2.40385 12.5 2.40385ZM8.67921 10.1736C8.67921 8.07073 10.3929 6.35986 12.5 6.35986C14.6071 6.35986 16.3208 8.07073 16.3208 10.1736C16.3208 12.2765 14.6071 13.9874 12.5 13.9874C10.3929 13.9874 8.67921 12.2765 8.67921 10.1736ZM5.79882 20.0307C6.01561 17.3866 8.81959 15.4297 12.5 15.4297C16.1804 15.4297 18.9844 17.3866 19.2012 20.0307C17.4165 21.6207 15.0728 22.5962 12.5 22.5962C9.9272 22.5962 7.58357 21.6207 5.79882 20.0307Z" fill="#1D1D1B"/>
</svg>
